REM DIRINDEX 1\2\3,1\2\4,1\2\5,1\2\6
REM DIRNAME folder01,folder02,folder03,folder04,folder05,folder06
TITLE ""
FILE "134 134.mp3" MP3
  TRACK 01 AUDIO
    TITLE "0:"
    INDEX 01 00:00:00
  TRACK 02 AUDIO
    TITLE "3:cjc157_5013"
    INDEX 01 00:00:11
  TRACK 03 AUDIO
    TITLE "0:"
    INDEX 01 00:01:34
  TRACK 04 AUDIO
    TITLE "4:cjc157_5014"
    INDEX 01 00:02:06
  TRACK 05 AUDIO
    TITLE "0:"
    INDEX 01 00:03:10
  TRACK 06 AUDIO
    TITLE "5:cjc157_5015"
    INDEX 01 00:03:55
  TRACK 07 AUDIO
    TITLE "0:"
    INDEX 01 00:05:20
  TRACK 08 AUDIO
    TITLE "3:cjc157_5016"
    INDEX 01 00:05:67
  TRACK 09 AUDIO
    TITLE "0:"
    INDEX 01 00:07:41
  TRACK 10 AUDIO
    TITLE "4:cjc157_5017"
    INDEX 01 00:08:13
  TRACK 11 AUDIO
    TITLE "0:"
    INDEX 01 00:09:24
  TRACK 12 AUDIO
    TITLE "5:cjc157_5018"
    INDEX 01 00:09:67
  TRACK 13 AUDIO
    TITLE "0:"
    INDEX 01 00:12:07
  TRACK 14 AUDIO
    TITLE "5:cjc157_5019"
    INDEX 01 00:12:50
  TRACK 15 AUDIO
    TITLE "0:"
    INDEX 01 00:15:27
  TRACK 16 AUDIO
    TITLE "3:cjc157_5020"
    INDEX 01 00:15:74
  TRACK 17 AUDIO
    TITLE "0:"
    INDEX 01 00:17:25
  TRACK 18 AUDIO
    TITLE "4:cjc157_5021"
    INDEX 01 00:17:70
  TRACK 19 AUDIO
    TITLE "0:"
    INDEX 01 00:19:15
  TRACK 20 AUDIO
    TITLE "5:cjc157_5022"
    INDEX 01 00:19:56
  TRACK 21 AUDIO
    TITLE "0:"
    INDEX 01 00:22:29
  TRACK 22 AUDIO
    TITLE "5:cjc157_5023"
    INDEX 01 00:23:06
  TRACK 23 AUDIO
    TITLE "0:"
    INDEX 01 00:24:72
  TRACK 24 AUDIO
    TITLE "3:cjc157_5024"
    INDEX 01 00:25:46
  TRACK 25 AUDIO
    TITLE "0:"
    INDEX 01 00:26:60
  TRACK 26 AUDIO
    TITLE "4:cjc157_5025"
    INDEX 01 00:27:28
  TRACK 27 AUDIO
    TITLE "0:"
    INDEX 01 00:28:33
  TRACK 28 AUDIO
    TITLE "5:cjc157_5026"
    INDEX 01 00:29:03
  TRACK 29 AUDIO
    TITLE "0:"
    INDEX 01 00:30:59
  TRACK 30 AUDIO
    TITLE "5:cjc157_5027"
    INDEX 01 00:31:31
  TRACK 31 AUDIO
    TITLE "0:"
    INDEX 01 00:33:24
  TRACK 32 AUDIO
    TITLE "3:cjc157_5028"
    INDEX 01 00:33:69
  TRACK 33 AUDIO
    TITLE "0:"
    INDEX 01 00:35:35
  TRACK 34 AUDIO
    TITLE "4:cjc157_5029"
    INDEX 01 00:36:05
  TRACK 35 AUDIO
    TITLE "0:"
    INDEX 01 00:37:18
  TRACK 36 AUDIO
    TITLE "5:cjc157_5030"
    INDEX 01 00:37:63
  TRACK 37 AUDIO
    TITLE "0:"
    INDEX 01 00:40:15
  TRACK 38 AUDIO
    TITLE "5:cjc157_5031"
    INDEX 01 00:40:62
  TRACK 39 AUDIO
    TITLE "0:"
    INDEX 01 00:44:01
  TRACK 40 AUDIO
    TITLE "5:cjc157_5032"
    INDEX 01 00:44:46
  TRACK 41 AUDIO
    TITLE "0:"
    INDEX 01 00:47:03
  TRACK 42 AUDIO
    TITLE "5:cjc157_5033"
    INDEX 01 00:47:54
  TRACK 43 AUDIO
    TITLE "0:"
    INDEX 01 00:49:02
  TRACK 44 AUDIO
    TITLE "3:cjc157_5034"
    INDEX 01 00:49:51
  TRACK 45 AUDIO
    TITLE "0:"
    INDEX 01 00:51:30
  TRACK 46 AUDIO
    TITLE "4:cjc157_5035"
    INDEX 01 00:52:02
  TRACK 47 AUDIO
    TITLE "0:"
    INDEX 01 00:55:10
  TRACK 48 AUDIO
    TITLE "5:cjc157_5036"
    INDEX 01 00:55:57
  TRACK 49 AUDIO
    TITLE "0:"
    INDEX 01 00:58:32
  TRACK 50 AUDIO
    TITLE "5:cjc157_5037"
    INDEX 01 00:59:08
  TRACK 51 AUDIO
    TITLE "0:"
    INDEX 01 01:01:68
  TRACK 52 AUDIO
    TITLE "3:cjc157_5038"
    INDEX 01 01:02:40
  TRACK 53 AUDIO
    TITLE "0:"
    INDEX 01 01:04:41
  TRACK 54 AUDIO
    TITLE "4:cjc157_5039"
    INDEX 01 01:05:17
  TRACK 55 AUDIO
    TITLE "0:"
    INDEX 01 01:06:24
  TRACK 56 AUDIO
    TITLE "5:cjc157_5040"
    INDEX 01 01:06:71
  TRACK 57 AUDIO
    TITLE "0:"
    INDEX 01 01:09:71
  TRACK 58 AUDIO
    TITLE "3:cjc157_5041"
    INDEX 01 01:10:43
  TRACK 59 AUDIO
    TITLE "0:"
    INDEX 01 01:11:60
  TRACK 60 AUDIO
    TITLE "4:cjc157_5042"
    INDEX 01 01:12:26
  TRACK 61 AUDIO
    TITLE "0:"
    INDEX 01 01:13:47
  TRACK 62 AUDIO
    TITLE "5:cjc157_5043"
    INDEX 01 01:14:19
  TRACK 63 AUDIO
    TITLE "0:"
    INDEX 01 01:16:44
  TRACK 64 AUDIO
    TITLE "5:cjc157_5044"
    INDEX 01 01:17:12
  TRACK 65 AUDIO
    TITLE "0:"
    INDEX 01 01:20:06
  TRACK 66 AUDIO
    TITLE "3:cjc157_5045"
    INDEX 01 01:20:55
  TRACK 67 AUDIO
    TITLE "0:"
    INDEX 01 01:22:03
  TRACK 68 AUDIO
    TITLE "4:cjc157_5046"
    INDEX 01 01:22:46
  TRACK 69 AUDIO
    TITLE "0:"
    INDEX 01 01:23:58
  TRACK 70 AUDIO
    TITLE "5:cjc157_5047"
    INDEX 01 01:24:36
  TRACK 71 AUDIO
    TITLE "0:"
    INDEX 01 01:26:46
  TRACK 72 AUDIO
    TITLE "5:cjc157_5048"
    INDEX 01 01:27:12
  TRACK 73 AUDIO
    TITLE "0:"
    INDEX 01 01:30:32
  TRACK 74 AUDIO
    TITLE "3:cjc157_5049"
    INDEX 01 01:31:00
  TRACK 75 AUDIO
    TITLE "0:"
    INDEX 01 01:32:27
  TRACK 76 AUDIO
    TITLE "4:cjc157_5050"
    INDEX 01 01:32:74
  TRACK 77 AUDIO
    TITLE "0:"
    INDEX 01 01:34:20
  TRACK 78 AUDIO
    TITLE "5:cjc157_5051"
    INDEX 01 01:34:63
  TRACK 79 AUDIO
    TITLE "0:"
    INDEX 01 01:37:64
